<?xml version="1.0" encoding="UTF-8" standalone="no"?>
<svg
   xmlns:dc="http://purl.org/dc/elements/1.1/"
   xmlns:cc="http://creativecommons.org/ns#"
   xmlns:rdf="http://www.w3.org/1999/02/22-rdf-syntax-ns#"
   xmlns:svg="http://www.w3.org/2000/svg"
   xmlns="http://www.w3.org/2000/svg"
   xmlns:sodipodi="http://sodipodi.sourceforge.net/DTD/sodipodi-0.dtd"
   xmlns:inkscape="http://www.inkscape.org/namespaces/inkscape"
   width="128"
   height="128"
   viewBox="0 0 33.866667 33.866667"
   version="1.1"
   id="svg8"
   inkscape:version="1.0.2 (e86c8708, 2021-01-15)"
   sodipodi:docname="icon.svg">
  <defs
     id="defs2" />
  <sodipodi:namedview
     id="base"
     pagecolor="#ffffff"
     bordercolor="#666666"
     borderopacity="1.0"
     inkscape:pageopacity="0.0"
     inkscape:pageshadow="2"
     inkscape:zoom="2.4975728"
     inkscape:cx="21.496599"
     inkscape:cy="87.142857"
     inkscape:document-units="mm"
     inkscape:current-layer="layer1"
     inkscape:document-rotation="0"
     showgrid="false"
     units="px"
     width="128px"
     inkscape:window-width="1252"
     inkscape:window-height="943"
     inkscape:window-x="183"
     inkscape:window-y="180"
     inkscape:window-maximized="0" />
  <metadata
     id="metadata5">
    <rdf:RDF>
      <cc:Work
         rdf:about="">
        <dc:format>image/svg+xml</dc:format>
        <dc:type
           rdf:resource="http://purl.org/dc/dcmitype/StillImage" />
        <dc:title></dc:title>
      </cc:Work>
    </rdf:RDF>
  </metadata>
  <g
     inkscape:label="Layer 1"
     inkscape:groupmode="layer"
     id="layer1">
    <path
       id="rect99"
       style="fill:#ff8800;fill-opacity:1;fill-rule:evenodd;stroke:none;stroke-width:1.14142;stroke-miterlimit:4;stroke-dasharray:none;stroke-opacity:1"
       d="M 22.421875 0 C 10.000215 -2.3684758e-15 0 10.000215 0 22.421875 L 0 105.57812 C -2.3684758e-15 117.99979 10.000215 128 22.421875 128 L 105.57812 128 C 117.99979 128 128 117.99979 128 105.57812 L 128 22.421875 C 128 10.000215 117.99979 0 105.57812 0 L 22.421875 0 z M 29.964844 11.611328 L 98.035156 11.611328 C 108.2032 11.611328 116.38867 19.796798 116.38867 29.964844 L 116.38867 98.035156 C 116.38867 108.2032 108.2032 116.38867 98.035156 116.38867 L 29.964844 116.38867 C 19.796798 116.38867 11.611328 108.2032 11.611328 98.035156 L 11.611328 29.964844 C 11.611328 19.796798 19.796798 11.611328 29.964844 11.611328 z "
       transform="scale(0.26458333)" />
    <path
       id="rect10"
       style="fill:#585858;fill-opacity:1;fill-rule:evenodd;stroke-width:0.79375;stroke:#ffffff;stroke-opacity:1;stroke-miterlimit:4;stroke-dasharray:none"
       d="m 27.059385,22.213509 a 1.9717956,1.9717956 0 0 0 -1.972014,1.971675 H 23.02399 c -0.313289,0 -0.565519,0.25223 -0.565519,0.565519 v 1.734939 a 1.9717956,1.9717956 0 0 1 1.971675,1.971675 1.9717956,1.9717956 0 0 1 -1.971675,1.972015 v 2.392163 c 0,0.31329 0.25223,0.56552 0.565519,0.56552 h 2.063381 a 1.9717956,1.9717956 0 0 1 1.972014,-1.972015 1.9717956,1.9717956 0 0 1 1.971676,1.972015 h 2.06372 c 0.313289,0 0.565519,-0.25223 0.565519,-0.56552 v -2.06372 A 1.9717956,1.9717956 0 0 0 33.631976,28.786099 1.9717956,1.9717956 0 0 0 31.6603,26.814085 v -2.063382 c 1e-6,-0.313289 -0.25223,-0.565519 -0.565519,-0.565519 h -2.06372 a 1.9717956,1.9717956 0 0 0 -1.971676,-1.971675 z" />
    <path
       id="rect945"
       style="fill:#0073ae;fill-opacity:1;stroke:none;stroke-width:0.266472;stroke-miterlimit:4;stroke-dasharray:none;stroke-opacity:1"
       d="m 7.6315697,12.166179 c -0.6214096,0 -1.1216832,0.500273 -1.1216832,1.121683 v 7.290941 c 0,0.62141 0.5002736,1.121684 1.1216832,1.121684 H 19.876612 c 0.621409,0 1.121683,-0.500274 1.121683,-1.121684 v -7.290941 c 0,-0.62141 -0.500274,-1.121683 -1.121683,-1.121683 z m 19.7252103,1.712163 -2.807856,1.620969 -2.8074,1.620969 2.8074,1.620969 2.807856,1.620969 V 17.12028 Z" />
  </g>
</svg>
